<?xml version="1.0" encoding="UTF-8"?>
<svg data-bbox="0 0 141.37 141.37" viewBox="0 0 141.37 141.37" xmlns="http://www.w3.org/2000/svg" data-type="ugc">
    <g>
        <defs>
            <linearGradient gradientUnits="userSpaceOnUse" y2="124.36" x2="116.68" y1="17.01" x1="24.69" id="db084e3c-fae5-49dd-af0c-3765dd4489ca">
                <stop stop-color="#86b792" offset="0"/>
                <stop stop-color="#66a77b" offset="1"/>
            </linearGradient>
            <linearGradient gradientUnits="userSpaceOnUse" y2="120" x2="28.42" y1="21.37" x1="112.96" id="58581f3d-5122-496e-ad1e-28644da24447">
                <stop stop-color="#7cb189" offset="0"/>
                <stop stop-color="#66a77b" offset="1"/>
            </linearGradient>
            <clipPath id="a4cb7924-8dcd-477e-8947-f65f87adecce">
                <path d="M70.69 0c39.04 0 70.69 31.65 70.69 70.69s-31.65 70.69-70.69 70.69S0 109.73 0 70.69 31.65 0 70.69 0" clip-rule="evenodd"/>
            </clipPath>
            <clipPath id="7895a34e-0cf3-49c8-ba9f-083c95668c2b">
                <path d="M70.69 5.74c-35.87 0-64.95 29.08-64.95 64.95s29.08 64.95 64.95 64.95 64.95-29.08 64.95-64.95S106.56 5.74 70.69 5.74" clip-rule="evenodd"/>
            </clipPath>
        </defs>
        <g clip-path="url(#a4cb7924-8dcd-477e-8947-f65f87adecce)">
            <path fill="url(#db084e3c-fae5-49dd-af0c-3765dd4489ca)" d="M141.37 0v141.37H0V0z"/>
        </g>
        <g clip-path="url(#7895a34e-0cf3-49c8-ba9f-083c95668c2b)">
            <path fill="url(#58581f3d-5122-496e-ad1e-28644da24447)" d="M135.64 5.74v129.9H5.74V5.74z"/>
        </g>
        <path d="M37.11 58.06c.11-9.3 5.58-15.7 10.1-19.23 7.34-5.73 12.85-5.47 23.49-5.47s16.17-.25 23.49 5.47c4.55 3.56 9.94 9.94 10.1 19.15l-4.17.39c-.84 2.02-.84 26.08-.05 28.29 5.02 1.61 12.15-1.35 12.17-9.93.02-9.75 1.41-12.52-4.73-17.61-.13-4.84-1.28-9.17-3.43-13.29-2.12-4.08-4.36-6.41-7.28-8.89-7.49-6.36-14.39-6.62-26.11-6.62s-18.61.25-26.11 6.62c-5.33 4.53-10.41 11.4-10.7 22.19-6.12 4.98-4.83 8.26-4.73 17.97.06 6.33 5.4 11.75 12.17 9.56.79-2.17.78-26.32-.04-28.45l-4.17-.16Zm1.4 25.82c-7.26.38-6.28-8.15-6.28-11.57 0-3.14-1.03-11.33 6.38-11.19zm64.37-22.76c7.48-.16 6.28 8.52 6.28 11.56 0 3.4.84 11.57-6.38 11.2z" fill-rule="evenodd" fill="#ffffff"/>
        <path d="M45.46 53.67c-1.49 2.55-.65 15.14-.65 19.37 0 6.75.04 13.51 0 20.25-.03 4.79.04 4.14 4.26 5.87 3.38 1.39 20.21 8.8 21.28 8.83 1.26.03 12.2-4.99 14.32-5.86 11.85-4.81 11.36-3.69 11.32-8.85V55.37c-.16-1.24 0-.81-.69-1.51-1.96-1.54-22.25 9.54-24.95 9.5-2.35-.03-21.73-10.29-24.89-9.7m26.57 33.01-.04-20.39 20.85-8.95.06 37.43c-.34 1.28-9.19 4.49-10.28 4.93-2.5 1.01-8.62 4.05-10.54 4.37l-.03-16.22v-1.18Zm-24.14 8.1V57.39l18.53 7.78c1.24.5 1.97.53 2.42 1.62l-.02 37.3c-2.18-.54-12.54-5.18-15.87-6.63l-3.88-1.64c-1.58-.87-.69-.58-1.19-1.06Z" fill-rule="evenodd" fill="#ffffff"/>
        <path d="M53.47 76.79c-1.74 1.94 2.35 3.28 3.68 3.96 1.3.67 4.89 3.27 6.19 1.85 1.74-1.9-2.35-3.33-3.68-4-1.41-.71-4.74-3.42-6.19-1.81" fill-rule="evenodd" fill="#ffffff"/>
        <path d="M53.07 69.09c1.01.92 3.2 1.9 4.87 2.76 1.91.98 3.43 2.35 5.45 1.62.83-3-2.25-3.44-4.63-4.66-2.1-1.08-5.73-4.05-5.69.28" fill-rule="evenodd" fill="#ffffff"/>
        <path d="M86.96 88.51c1.4-.81 1.67-4.66-3.4-1.84-1.2.66-4.96 2.37-5.59 2.89-2.21 1.81-.58 3.91 3.28 1.8l5.71-2.84Z" fill-rule="evenodd" fill="#ffffff"/>
        <path d="M63.3 92.15c1.11-2.79-1.48-3.03-3.74-4.24-1.29-.69-4.93-3.22-6.15-1.99-2.01 2.02 2.58 3.59 3.88 4.24 1.85.93 4.08 2.72 6.01 1.98" fill-rule="evenodd" fill="#ffffff"/>
        <path d="M77.62 82.99c2.03.27 13.94-5.06 9.21-6.68-1.16-.4-5.25 2.07-6.27 2.57-2.27 1.12-4.31 1.43-2.94 4.11" fill-rule="evenodd" fill="#ffffff"/>
        <path d="M77.4 73.37c1.94.92 5.83-1.65 8.76-3.24 1.27-.69 1.84-1.06 1.34-2.87-1.86-.95-4.21.83-5.81 1.72-2.13 1.18-5.03 1.61-4.29 4.39" fill-rule="evenodd" fill="#ffffff"/>
        <path d="M112 105.6c.56.66.85 1.41.85 2.26 0 .84-.28 1.52-.86 2.01-.62.53-1.31.75-2.1.67-.78-.08-1.47-.47-2.07-1.18-.61-.71-.91-1.47-.92-2.27 0-.8.28-1.45.86-1.94.61-.52 1.31-.75 2.12-.69.8.06 1.51.44 2.12 1.14m-5.36-1.92c-.97.8-1.51 1.89-1.61 3.28-.11 1.39.34 2.67 1.35 3.85.93 1.09 2.06 1.67 3.37 1.72s2.46-.34 3.42-1.16c1.05-.9 1.61-2.03 1.67-3.41.06-1.37-.37-2.61-1.31-3.7q-1.38-1.62-3.39-1.74c-1.33-.08-2.51.3-3.51 1.16Zm-7.4 7.79c.5-.3.94-.42 1.33-.35.39.06.71.31.95.73.25.43.29.85.12 1.24s-.49.73-.95 1.01l-1 .61-1.56-2.54c.18-.12.55-.35 1.12-.69Zm-3.13 1.21c.08.12.2.32.37.58s.3.46.38.59c1.27 2.08 2.37 3.9 3.28 5.44.2.34.42.53.65.56s.52-.06.86-.29c.46-.32.53-.74.22-1.26-.11-.18-.33-.53-.65-1.05-.33-.52-.55-.89-.68-1.1.11-.06.32-.19.62-.37.31-.18.52-.3.62-.37.45.19 1.1.48 1.94.87q1.26.585 1.35.63c.16.05.27.09.35.11s.17.03.29.02c.12 0 .24-.04.35-.11.24-.16.41-.37.5-.63q.135-.39-.06-.72-.165-.27-.54-.42c-1.67-.67-2.62-1.06-2.87-1.16.35-.45.53-.96.55-1.55.02-.58-.13-1.14-.46-1.68-.51-.84-1.19-1.33-2.03-1.48s-1.72.05-2.63.58l-.98.59c-.28.18-.59.38-.91.6s-.53.46-.64.74-.07.57.11.86Zm-9.52 4.88 5.43 5.61c.26.25.48.42.69.51.2.08.46.07.76-.05.57-.22.85-.62.87-1.2l.09-2.88c.02-.45.03-.83.04-1.15v-.98q.03-2.52.03-3c-.02-.47-.05-.75-.09-.85q-.15-.36-.57-.48c-.28-.07-.54-.07-.78.03-.43.17-.65.46-.65.88l.1 5.83v.59c0 .3.01.51 0 .63l-3.69-4.08c-.28-.34-.61-.72-1.01-1.14-.3-.33-.65-.41-1.06-.25-.27.11-.49.29-.65.54-.16.26-.2.51-.1.76.04.09.22.32.56.7Zm-4.23 3.18.98 3.77c.04.14.09.36.17.66q.12.45.15.6c.07.29.22.49.44.59.23.1.49.12.79.04.29-.08.51-.21.65-.41.15-.19.18-.44.11-.72l-.67-2.46-.58-2.18-.88-3.32a.77.77 0 0 0-.42-.52c-.21-.09-.46-.1-.73-.03-.29.08-.51.22-.67.42s-.19.46-.1.76c.1.37.24.88.41 1.52s.29 1.06.35 1.28M73.73 119q.045.57.18 1.95c.08.91.14 1.59.18 2.02.04.44.08 1.06.12 1.85q.06 1.185.09 1.59c.02.17.04.35.08.55.08.44.24.72.49.84s.68.14 1.31.05c.4-.05 1.04-.12 1.9-.19l1.62-.12c.59-.05.85-.41.79-1.07-.02-.27-.11-.47-.26-.62-.15-.14-.37-.2-.65-.16l-1.93.24c-.2.03-.64.07-1.33.13l-.15-1.73c-.1-1.15-.17-2.02-.21-2.58-.12-1.63-.19-2.6-.22-2.92-.05-.57-.39-.82-1.01-.77-.3.03-.54.12-.73.29s-.28.39-.26.67Zm-4.53 4.1q-.12 1.305-1.02 2.19c-.6.59-1.28.86-2.04.79-.81-.07-1.45-.42-1.94-1.03-.49-.62-.69-1.39-.61-2.31.08-.93.41-1.68.98-2.24s1.23-.81 1.99-.74c.8.07 1.45.42 1.97 1.04q.78.93.66 2.31Zm-2.37-5.18q-1.875-.195-3.48 1.14c-1.07.89-1.67 2.11-1.81 3.66-.13 1.43.25 2.64 1.13 3.61.88.98 1.96 1.52 3.22 1.64 1.37.12 2.58-.27 3.6-1.19 1.03-.92 1.61-2.09 1.74-3.52.13-1.41-.24-2.63-1.12-3.64-.87-1.01-1.97-1.58-3.28-1.7m-9.84 2.13-1.05 3.75c-.04.14-.1.36-.19.65-.09.3-.14.5-.17.6-.09.29-.06.53.08.74.14.2.37.35.66.43s.55.07.77-.02c.23-.09.38-.28.46-.57l.66-2.46.59-2.18.9-3.31c.07-.25.03-.47-.11-.66s-.34-.32-.61-.39c-.29-.08-.55-.07-.79.03-.24.09-.39.3-.47.61-.1.37-.24.88-.41 1.52s-.28 1.06-.34 1.28Zm-7.2-4.6c.87.35 1.5.87 1.89 1.57s.41 1.51.03 2.43c-.81 2.01-2.34 2.57-4.57 1.67l-.13-.05c-.16-.07-.27-.11-.33-.15a.28.28 0 0 1-.13-.15c-.03-.06-.02-.15.02-.25l2.2-5.47c.22.08.56.21 1.01.39Zm-2.66-1.77-1.71 4.33-1.15 2.81c-.09.23-.1.47-.01.71s.23.41.42.52c.19.1.82.36 1.88.79 3.43 1.35 5.79.42 7.09-2.8q.81-1.995-.12-3.69c-.62-1.12-1.61-1.97-2.96-2.53-.05-.02-.28-.11-.67-.26s-.63-.25-.72-.28c-1.08-.44-1.76-.3-2.05.39Zm-10.99-1.86c-.76 1.08-1.05 2.13-.88 3.15s.76 1.87 1.77 2.58c1.05.74 2.11.97 3.17.71q1.59-.39 2.76-2.07l2.44-3.51c.23-.32.32-.61.3-.85-.03-.24-.19-.47-.47-.67-.56-.39-1.03-.33-1.39.19-.19.27-.46.67-.82 1.2s-.69 1.02-1 1.46-.61.85-.89 1.22c-.41.56-.89.92-1.42 1.09s-1.05.08-1.54-.27c-.54-.38-.84-.83-.91-1.36s.13-1.11.57-1.75c1.52-2.17 2.41-3.43 2.68-3.8.21-.3.3-.56.27-.79-.03-.22-.21-.44-.52-.67q-.375-.27-.72-.21-.345.045-.6.42c-.55.79-1.48 2.1-2.78 3.92Zm-3.19-7.05c-.14.3-.43.91-.88 1.85-.44.94-.69 1.46-.75 1.57-.52-.49-1.12-1.06-1.8-1.72 2-.98 3.14-1.55 3.42-1.69Zm-7.78 1.55c-.23.23-.32.49-.26.76s.2.52.43.74c.28.27.64.31 1.1.12l1.6-.74.96.94c.94.92 1.48 1.46 1.6 1.59l-.72 1.69c-.17.41-.09.78.24 1.1.22.22.47.34.75.37s.49-.03.64-.19c.12-.12.22-.3.32-.56.17-.45.52-1.33 1.07-2.64.01-.05.04-.14.09-.26s.08-.2.09-.26c1.21-2.89 1.84-4.42 1.92-4.6.2-.48.08-.94-.36-1.37-.17-.17-.37-.28-.61-.34a1 1 0 0 0-.66.05l-4.22 1.82q-1.065.48-3.15 1.29-.57.225-.81.48Z" fill="#ffffff"/>
        <path d="M121.12 45.79c-.26.12-.64.29-1.16.52s-.91.4-1.17.52c-.41.19-.86.38-1.35.6-.49.21-.87.38-1.15.5s-.43.18-.45.19c-.09.03-.2.09-.33.16-.26.14-.4.31-.42.5s.06.49.24.89l1.25 2.77c.2.41.51.52.94.33.4-.18.52-.45.36-.82-.03-.06-.07-.15-.14-.29-.06-.13-.11-.24-.15-.32-.23-.48-.53-1.12-.9-1.93l1.03-.47c.26-.12.45-.2.57-.25l.89 1.96c.18.4.47.51.86.35.25-.11.39-.23.41-.39.02-.15-.02-.36-.14-.62-.21-.42-.44-.92-.7-1.48l-.15-.32.07-.03.93-.4.7-.31.16.35c.61 1.35.96 2.09 1.04 2.23.19.22.45.24.79.07.17-.08.28-.2.33-.34.06-.15.04-.32-.05-.51-.02-.05-.15-.33-.4-.85-.24-.52-.5-1.09-.78-1.7l-.18-.4c-.1-.22-.23-.38-.4-.47-.17-.1-.35-.1-.56-.01m-5.34-7.62q.615.87.57 1.8c-.03.61-.36 1.14-.98 1.58-1.35.96-2.57.69-3.64-.81l-.06-.09c-.08-.11-.13-.19-.15-.23-.02-.05-.03-.1-.02-.15 0-.05.05-.1.12-.15l3.67-2.61c.11.14.27.36.49.67Zm-.98-2.24-2.89 2.09-1.9 1.34q-.24.165-.3.45t.06.51c.08.14.38.57.89 1.29 1.65 2.29 3.56 2.66 5.72 1.12q1.35-.96 1.44-2.43c.06-.98-.22-1.93-.86-2.85l-.32-.44c-.19-.26-.31-.42-.35-.48-.52-.73-1.01-.93-1.48-.59Zm-6.38-5.46c-.1.23-.32.7-.65 1.42s-.52 1.12-.56 1.21c-.41-.37-.87-.8-1.39-1.3 1.52-.77 2.39-1.22 2.6-1.33m-5.94 1.27c-.17.18-.24.38-.19.58.05.21.16.4.33.56.21.2.49.23.84.08l1.22-.59.75.71c.73.7 1.15 1.1 1.24 1.2l-.53 1.3c-.13.32-.06.6.19.84q.255.24.57.27c.21.02.37-.03.49-.15.09-.09.17-.23.24-.43.12-.34.39-1.02.79-2.03 0-.04.03-.11.07-.2.03-.09.06-.16.07-.2.89-2.22 1.37-3.4 1.42-3.54.15-.37.05-.72-.29-1.04a.94.94 0 0 0-.47-.25.8.8 0 0 0-.51.04l-3.21 1.44q-.81.375-2.4 1.02c-.29.12-.5.25-.62.38ZM99.35 23c.6.39 1 .87 1.2 1.45s.09 1.19-.32 1.83c-.9 1.4-2.12 1.6-3.68.6l-.09-.06c-.11-.07-.19-.12-.23-.16a.22.22 0 0 1-.08-.13c-.01-.05 0-.11.05-.19l2.43-3.8c.15.09.39.24.71.44Zm-1.75-1.71-1.91 3.01-1.26 1.95c-.1.16-.14.34-.11.53q.045.285.24.45c.13.1.56.39 1.3.86 2.39 1.5 4.3 1.14 5.73-1.09.59-.93.74-1.86.43-2.79s-.93-1.71-1.86-2.33c-.04-.02-.19-.12-.46-.29s-.44-.27-.5-.31c-.75-.48-1.28-.48-1.6 0Zm-7.31-1.02-1.11 2.76c-.04.1-.11.26-.2.48s-.15.37-.18.44q-.135.315 0 .57c.09.17.25.3.47.38.21.08.41.1.59.05s.31-.18.39-.4l.71-1.82.63-1.61.96-2.44q.105-.285-.03-.51a.85.85 0 0 0-.43-.35.97.97 0 0 0-.6-.05c-.19.05-.32.19-.4.42-.11.28-.25.65-.44 1.12-.18.47-.3.79-.37.95Zm-8.22-4.77c-.07.29-.18.77-.33 1.46-.15.68-.27 1.19-.34 1.51-.08.33-.19.79-.35 1.37-.16.59-.26.98-.31 1.18-.03.13-.05.27-.07.41-.05.34 0 .58.16.72.15.15.46.26.94.35.31.06.78.16 1.43.31l1.21.29c.44.1.72-.1.83-.59.05-.2.03-.37-.04-.51s-.22-.23-.44-.27l-1.46-.28c-.15-.03-.49-.1-1-.22l.3-1.3c.2-.86.35-1.51.46-1.93.3-1.21.47-1.94.53-2.17.1-.42-.09-.69-.55-.8a.93.93 0 0 0-.6.04c-.18.08-.29.22-.35.43Zm-7.05 1.28-.25 2.97c0 .11-.02.28-.04.52-.02.23-.04.39-.04.47-.02.23.03.41.17.54s.32.21.56.23c.23.02.42-.03.58-.13s.24-.27.26-.5l.14-1.95.13-1.72.2-2.62c.01-.2-.04-.36-.17-.48a.85.85 0 0 0-.52-.21.96.96 0 0 0-.59.13c-.16.11-.25.28-.26.52-.02.3-.05.69-.09 1.2-.03.5-.06.84-.07 1.01Zm-6.58-.88c.02.32-.05.57-.23.77s-.42.31-.74.33c-.41.05-.8.08-1.16.11l-.15-1.9.32-.02.49-.04.34-.03c.31-.01.57.04.78.18s.32.34.35.6m-.78 2.3c.84-.06 1.28.21 1.33.82.02.31-.07.55-.29.72s-.5.28-.86.31c-.74.06-1.16.09-1.27.09l-.16-1.82 1.26-.12Zm-.44-4.39c-1.04.08-1.74.15-2.08.23a.7.7 0 0 0-.42.28c-.1.14-.14.32-.13.53.02.28.06.69.11 1.24s.09.97.11 1.25l.13 1.83.11 1.58c.03.25.12.44.26.56.14.13.32.18.53.17l.91-.06c.91-.07 1.55-.14 1.92-.2.62-.11 1.1-.37 1.43-.78.33-.4.47-.94.42-1.61-.03-.42-.19-.76-.47-1.02s-.62-.43-1.03-.49c.28-.14.5-.35.66-.64s.23-.61.2-.97c-.05-.6-.32-1.08-.82-1.44s-1.12-.51-1.85-.45Zm-8.95 4.25.65 2.91c.03.11.06.28.11.51s.08.39.1.47c.04.22.15.38.32.46.17.09.37.1.6.05q.33-.075.51-.3c.12-.14.15-.33.1-.55l-.45-1.9-.39-1.68-.59-2.56a.57.57 0 0 0-.31-.41c-.16-.08-.35-.09-.56-.04-.22.05-.4.15-.52.3s-.16.34-.09.58c.07.29.16.68.28 1.17s.19.82.23.99Zm-6.15-.94c-.61-.05-1.25.06-1.94.34-.69.27-1.21.72-1.53 1.35-.33.63-.37 1.25-.12 1.88.22.55.58.89 1.1 1.01.51.13 1.15.12 1.91-.02.41-.08.76-.09 1.02-.05.27.05.45.19.54.43.1.26.08.51-.07.75s-.39.43-.71.55c-.36.14-.83.2-1.4.19-.26 0-.46.03-.62.09-.17.07-.29.2-.35.39a.83.83 0 0 0 .03.58c.12.3.36.45.73.47.67.06 1.38-.07 2.16-.39.74-.31 1.28-.76 1.6-1.34.32-.59.35-1.22.08-1.9q-.36-.915-1.11-1.14c-.5-.15-1.15-.15-1.94-.02q-.675.12-1.05.09a.565.565 0 0 1-.51-.37c-.09-.23-.07-.47.08-.72q.225-.36.66-.54c.33-.13.69-.2 1.08-.2.27.01.49-.01.65-.08.17-.07.29-.2.35-.38.06-.19.06-.35 0-.5q-.18-.45-.63-.48Zm-9.47 4.3c-.6.07-1.22.31-1.84.7-.63.4-1.04.94-1.24 1.62s-.12 1.3.24 1.87c.32.5.74.76 1.27.78s1.15-.11 1.87-.39c.39-.15.72-.24 1-.24.27 0 .48.1.62.31.15.24.18.49.08.75-.1.27-.3.49-.59.68-.32.21-.77.36-1.34.45-.25.05-.45.12-.59.21-.16.1-.24.25-.27.45a.9.9 0 0 0 .14.57c.17.27.44.37.81.32.66-.07 1.34-.34 2.04-.8.67-.45 1.11-.99 1.31-1.63s.1-1.26-.29-1.88c-.36-.55-.79-.85-1.31-.9s-1.16.07-1.9.36c-.43.17-.77.26-1.02.29a.56.56 0 0 1-.57-.27q-.21-.315-.06-.72t.54-.66c.3-.19.64-.33 1.02-.4.27-.04.48-.11.62-.2.16-.1.25-.25.27-.44.02-.2 0-.36-.09-.49-.18-.27-.41-.39-.71-.35Zm-11.09 8.81c.18.21.46.53.83.96s.64.75.83.97c.29.34.61.71.96 1.12q.51.615.81.96c.2.24.3.36.31.38.06.08.14.17.25.27.21.21.41.3.6.26s.45-.2.79-.49l2.29-1.99c.34-.31.35-.64.05-.99-.29-.34-.59-.37-.89-.11-.05.04-.13.11-.23.21q-.165.15-.27.24-.585.54-1.59 1.41l-.74-.85c-.19-.22-.32-.38-.4-.48l1.62-1.41c.33-.29.36-.59.09-.93-.17-.21-.34-.31-.49-.29s-.34.12-.56.31c-.35.32-.76.68-1.23 1.09l-.27.23-.05-.06-.64-.78-.5-.58.29-.25c1.12-.97 1.73-1.52 1.84-1.63.15-.24.1-.5-.16-.77-.13-.13-.27-.21-.42-.22-.16-.01-.31.05-.48.19-.04.03-.27.24-.7.62q-.645.57-1.41 1.23l-.34.29c-.18.16-.3.33-.34.52s0 .37.15.54Zm-4.28 4.08c-.42.21-.83.58-1.23 1.09a3.35 3.35 0 0 0-.73 1.65c-.1.63-.02 1.28.24 1.96s.69 1.26 1.3 1.75c.87.7 1.79.99 2.76.85s1.75-.58 2.35-1.32q.585-.72.81-1.56.21-.84-.12-1.11a.92.92 0 0 0-.54-.22c-.2-.02-.36.05-.48.2-.08.09-.15.27-.2.56-.1.45-.27.83-.52 1.14q-.525.66-1.44.75c-.61.07-1.18-.11-1.7-.53q-.87-.705-1.05-1.62c-.12-.61 0-1.14.34-1.58.23-.29.52-.54.88-.74.21-.11.37-.23.46-.34.13-.16.17-.33.13-.5a.84.84 0 0 0-.31-.46c-.24-.2-.56-.19-.95.03m-5.87 11.96c.25.03.76.11 1.55.22s1.22.17 1.32.19c-.24.49-.52 1.06-.85 1.71-1.17-1.24-1.85-1.94-2.02-2.11Zm2.91 5.33c.22.11.43.12.61.02.19-.1.33-.26.45-.48.13-.26.08-.54-.16-.83l-.91-1 .47-.92c.46-.9.73-1.41.8-1.53l1.4.14q.51.045.75-.42c.11-.21.14-.42.1-.63s-.14-.35-.28-.42c-.11-.06-.27-.09-.48-.11-.36-.02-1.09-.08-2.17-.18h-.21c-.1 0-.17-.01-.21 0-2.38-.22-3.65-.34-3.8-.35-.4-.04-.7.15-.92.58-.08.16-.12.34-.11.52 0 .18.07.34.19.48l2.29 2.67c.4.44.95 1.11 1.66 2.01.2.24.38.4.54.49Z" fill="#ffffff"/>
        <path fill="none" stroke="#ffffff" stroke-dasharray=".54 .54" stroke-miterlimit="22.93" stroke-width=".54" d="M134.86 51.143c10.792 35.435-9.184 72.91-44.618 83.702s-72.91-9.183-83.702-44.617c-10.793-35.435 9.183-72.91 44.618-83.702 35.434-10.793 72.909 9.183 83.702 44.617z"/>
    </g>
</svg>
