<?xml version="1.0" encoding="UTF-8"?>
<svg data-bbox="-0.002 0.903 20.284 20.102" xmlns="http://www.w3.org/2000/svg" viewBox="0 0 21 21" height="21" width="21" data-type="color">
    <g>
        <path fill="#009EE2" d="M10.14 2.714c2.708 0 3.028.01 4.097.06.987.044 1.524.208 1.882.345.473.182.811.4 1.167.752a3.1 3.1 0 0 1 .759 1.156c.138.354.303.886.348 1.865.048 1.06.06 1.379.06 4.06s-.01 3-.06 4.06c-.045.978-.21 1.51-.348 1.865a3.1 3.1 0 0 1-.76 1.156 3.1 3.1 0 0 1-1.166.752c-.358.137-.895.3-1.882.345-1.07.047-1.389.059-4.097.059s-3.028-.01-4.097-.06c-.987-.044-1.524-.207-1.882-.344a3.15 3.15 0 0 1-1.167-.752 3.1 3.1 0 0 1-.758-1.156c-.139-.355-.303-.887-.349-1.866-.048-1.059-.06-1.378-.06-4.06 0-2.68.01-3 .06-4.059.046-.979.21-1.51.349-1.865a3.1 3.1 0 0 1 .758-1.156 3.1 3.1 0 0 1 1.167-.752c.358-.137.895-.3 1.882-.346 1.07-.047 1.391-.059 4.097-.059m0-1.81c-2.753 0-3.1.011-4.18.06-1.078.05-1.816.218-2.462.469-.666.258-1.231.6-1.797 1.158a4.9 4.9 0 0 0-1.169 1.78c-.25.64-.422 1.37-.472 2.44-.05 1.072-.062 1.415-.062 4.143s.011 3.071.062 4.142c.05 1.069.22 1.8.472 2.44.26.66.606 1.22 1.17 1.78a4.95 4.95 0 0 0 1.796 1.16c.644.247 1.381.418 2.462.467 1.08.05 1.427.062 4.18.062s3.1-.012 4.18-.062 1.816-.217 2.462-.468a5 5 0 0 0 1.797-1.158 4.9 4.9 0 0 0 1.17-1.78c.25-.64.421-1.37.472-2.44.05-1.072.061-1.415.061-4.143s-.011-3.071-.061-4.142c-.05-1.069-.22-1.8-.473-2.44a5 5 0 0 0-1.169-1.78 4.95 4.95 0 0 0-1.797-1.16c-.644-.247-1.381-.418-2.462-.467-1.08-.05-1.427-.062-4.18-.062" data-color="1"/>
        <path fill="#009EE2" d="M10.14 5.793c-2.875 0-5.206 2.31-5.206 5.159s2.331 5.159 5.206 5.159 5.206-2.31 5.206-5.16c0-2.848-2.33-5.158-5.206-5.158m0 8.509c-1.866 0-3.38-1.5-3.38-3.35 0-1.852 1.512-3.35 3.38-3.35s3.381 1.498 3.381 3.35c0 1.85-1.513 3.35-3.38 3.35" data-color="1"/>
        <path fill="#009EE2" d="M15.554 6.795c.672 0 1.216-.54 1.216-1.206s-.544-1.205-1.216-1.205-1.217.54-1.217 1.205c0 .666.545 1.206 1.217 1.206" data-color="1"/>
    </g>
</svg>
