<?xml version="1.0" encoding="UTF-8"?>
<svg data-bbox="0 0 141.37 141.37" viewBox="0 0 141.37 141.37" xmlns:xlink="http://www.w3.org/1999/xlink" xmlns="http://www.w3.org/2000/svg" data-type="ugc">
    <g>
        <defs>
            <linearGradient gradientUnits="userSpaceOnUse" y2="124.36" x2="116.69" y1="17.01" x1="24.68" id="fa5072c4-0ed4-481b-a103-ac3c32d9beab">
                <stop stop-color="#0080c4" offset="0"/>
                <stop stop-color="#004693" offset="1"/>
            </linearGradient>
            <linearGradient xlink:href="#fa5072c4-0ed4-481b-a103-ac3c32d9beab" y2="120" x2="28.43" y1="21.37" x1="112.95" id="3055a299-f674-4a4c-83ba-efc3893dcd09"/>
            <clipPath id="82a4ec29-f5fc-41b2-b78d-5f5b5a19b957">
                <path d="M70.69 0c39.04 0 70.69 31.65 70.69 70.69s-31.65 70.69-70.69 70.69S0 109.73 0 70.69 31.65 0 70.69 0" clip-rule="evenodd"/>
            </clipPath>
            <clipPath id="c87d8761-f5f3-4ddb-a8c0-5d230c35f729">
                <path d="M70.69 5.74c-35.87 0-64.95 29.08-64.95 64.95s29.08 64.95 64.95 64.95 64.95-29.08 64.95-64.95S106.56 5.74 70.69 5.74" clip-rule="evenodd"/>
            </clipPath>
        </defs>
        <g clip-path="url(#82a4ec29-f5fc-41b2-b78d-5f5b5a19b957)">
            <path fill="url(#fa5072c4-0ed4-481b-a103-ac3c32d9beab)" d="M141.37 0v141.37H0V0z"/>
        </g>
        <g clip-path="url(#c87d8761-f5f3-4ddb-a8c0-5d230c35f729)">
            <path fill="url(#3055a299-f674-4a4c-83ba-efc3893dcd09)" d="M135.64 5.74v129.9H5.74V5.74z"/>
        </g>
        <path d="M121.12 45.79c-.26.12-.64.29-1.16.52s-.91.4-1.17.52c-.41.19-.86.38-1.35.6-.49.21-.87.38-1.15.5s-.43.18-.45.19c-.09.03-.2.09-.33.16-.26.14-.4.31-.42.5s.06.49.25.89l1.25 2.77c.2.41.51.52.94.33.4-.18.52-.45.36-.82a6 6 0 0 1-.13-.29c-.06-.13-.11-.24-.15-.32-.23-.48-.53-1.12-.9-1.93l1.03-.47c.26-.12.45-.2.57-.25l.89 1.96c.18.4.47.51.86.35.25-.11.39-.23.41-.39.02-.15-.02-.36-.14-.62-.21-.42-.44-.92-.7-1.48l-.15-.32.07-.03.93-.4.7-.31.16.35c.61 1.35.96 2.09 1.04 2.23.19.22.45.24.79.07.17-.08.28-.2.33-.34.06-.15.04-.32-.05-.51-.02-.05-.15-.33-.4-.85-.24-.52-.5-1.09-.78-1.7l-.18-.4c-.1-.22-.23-.38-.4-.47-.17-.1-.35-.1-.56-.01m-5.36-7.62q.615.87.57 1.8c-.03.61-.36 1.14-.98 1.58-1.35.96-2.57.69-3.64-.81l-.06-.09c-.08-.11-.13-.19-.15-.23-.02-.05-.03-.1-.02-.15 0-.05.05-.1.12-.15l3.67-2.61c.11.14.27.36.49.67Zm-.98-2.24-2.89 2.09-1.9 1.34q-.24.165-.3.45t.06.51c.08.14.38.57.89 1.29 1.65 2.29 3.56 2.66 5.72 1.12q1.35-.96 1.44-2.43c.07-.98-.22-1.93-.86-2.85l-.32-.44c-.19-.26-.31-.42-.35-.48-.52-.73-1.01-.93-1.48-.59Zm-6.38-5.46c-.1.23-.32.7-.65 1.42s-.52 1.12-.56 1.21c-.41-.37-.87-.8-1.39-1.3 1.52-.77 2.39-1.22 2.6-1.33m-5.94 1.27c-.17.18-.24.38-.19.58s.16.4.33.56c.21.2.49.23.84.08l1.22-.59.75.71c.73.7 1.15 1.1 1.24 1.2l-.53 1.3c-.13.32-.06.6.19.84q.255.24.57.27c.21.02.37-.03.49-.15.09-.09.17-.23.24-.43.12-.34.39-1.02.79-2.03 0-.04.03-.11.06-.2.04-.09.06-.16.07-.2.89-2.22 1.37-3.4 1.42-3.54.15-.37.05-.72-.29-1.04a.94.94 0 0 0-.47-.25.8.8 0 0 0-.51.04l-3.21 1.44q-.81.375-2.4 1.02c-.29.12-.5.25-.62.38ZM99.35 23c.6.39 1 .87 1.2 1.45s.09 1.19-.32 1.83c-.9 1.4-2.12 1.6-3.68.6l-.09-.06c-.11-.07-.19-.12-.23-.16a.22.22 0 0 1-.08-.13c-.01-.05 0-.11.05-.19l2.43-3.8c.15.09.39.24.71.44Zm-1.75-1.71-1.91 3.01-1.26 1.95c-.1.16-.14.34-.11.53q.045.285.24.45c.13.1.56.39 1.3.86 2.39 1.5 4.3 1.14 5.73-1.09.59-.93.74-1.86.43-2.79s-.93-1.71-1.86-2.33c-.04-.02-.19-.12-.46-.29s-.44-.27-.5-.31q-1.125-.72-1.59 0Zm-7.31-1.02-1.11 2.76c-.04.1-.11.26-.2.48s-.15.37-.18.44q-.135.315 0 .57c.09.17.25.3.47.38.21.08.41.1.59.05s.31-.18.39-.4l.71-1.82.63-1.61.96-2.44q.105-.285-.03-.51a.9.9 0 0 0-.43-.35.97.97 0 0 0-.6-.05c-.19.05-.32.19-.4.42-.11.28-.25.65-.44 1.12-.18.47-.3.79-.37.95Zm-8.22-4.77c-.07.29-.18.77-.33 1.46-.15.68-.27 1.19-.34 1.51-.08.33-.19.79-.35 1.37-.16.59-.26.98-.31 1.18-.03.13-.05.27-.07.41-.05.34 0 .58.16.72.15.15.46.26.94.35.31.06.78.16 1.43.31l1.21.29c.44.1.72-.1.83-.59.05-.2.03-.37-.04-.51s-.22-.23-.44-.27l-1.46-.28c-.15-.03-.49-.1-1-.22l.3-1.3c.2-.86.35-1.51.46-1.93.3-1.21.47-1.94.53-2.17.1-.42-.09-.69-.56-.8a.93.93 0 0 0-.6.04c-.18.08-.29.22-.35.43Zm-7.05 1.28-.25 2.97c0 .11-.02.28-.04.52-.02.23-.04.39-.04.47-.02.23.03.41.17.54s.33.21.56.23.42-.03.58-.13.24-.27.26-.5l.14-1.95.13-1.72.2-2.62c.01-.2-.04-.36-.17-.48a.85.85 0 0 0-.52-.21.96.96 0 0 0-.59.13c-.16.11-.25.28-.26.52-.02.3-.05.69-.09 1.2-.03.5-.06.84-.07 1.01Zm-6.58-.88c.02.32-.05.57-.23.77s-.42.31-.74.33c-.41.05-.8.08-1.16.11l-.14-1.9.32-.02.49-.04.34-.03c.31-.01.57.04.78.18s.32.34.35.6Zm-.78 2.3c.84-.06 1.28.21 1.33.82.02.31-.07.55-.29.72s-.5.28-.86.31c-.74.06-1.16.09-1.27.09l-.16-1.82 1.26-.12Zm-.44-4.39c-1.04.08-1.74.15-2.08.23a.7.7 0 0 0-.42.28c-.1.14-.14.32-.13.53.02.28.06.69.11 1.24s.09.97.11 1.25l.13 1.83.11 1.58c.03.25.12.44.26.56.14.13.32.18.53.17l.91-.06c.91-.07 1.55-.14 1.92-.2.62-.11 1.1-.37 1.43-.78.33-.4.47-.94.42-1.61-.03-.42-.19-.76-.47-1.02s-.62-.43-1.03-.49c.28-.14.5-.35.66-.64s.23-.61.2-.97c-.05-.6-.32-1.08-.82-1.44s-1.12-.51-1.85-.45Zm-8.95 4.25.65 2.91c.03.11.06.28.11.51s.08.39.1.47c.04.22.15.38.32.46.17.09.37.1.6.05q.33-.075.51-.3c.12-.14.15-.33.1-.55l-.45-1.9-.39-1.68-.59-2.56a.6.6 0 0 0-.31-.41c-.16-.08-.35-.09-.56-.04-.22.05-.4.15-.52.3s-.16.34-.09.58c.07.29.16.68.28 1.17s.19.82.23.99Zm-6.15-.94c-.61-.05-1.25.06-1.94.34-.69.27-1.21.72-1.53 1.35-.33.63-.37 1.25-.12 1.88.22.55.58.89 1.1 1.01.51.13 1.15.12 1.91-.02.41-.08.76-.09 1.02-.05.27.05.45.19.54.43.1.26.08.51-.07.75s-.39.43-.71.55c-.36.14-.82.2-1.4.19-.26 0-.46.03-.62.09-.17.07-.29.2-.35.39a.83.83 0 0 0 .03.58c.12.3.36.45.73.47.67.06 1.38-.07 2.16-.39.74-.31 1.28-.76 1.6-1.34.32-.59.35-1.22.08-1.9q-.36-.915-1.11-1.14c-.5-.15-1.15-.15-1.94-.02q-.675.12-1.05.09a.565.565 0 0 1-.51-.37c-.09-.23-.07-.47.08-.72q.225-.36.66-.54c.33-.13.69-.2 1.08-.2.27.01.49-.01.65-.08.17-.07.29-.2.35-.38.06-.19.06-.35 0-.5q-.18-.45-.63-.48Zm-9.47 4.3c-.6.07-1.22.31-1.84.7-.63.4-1.04.94-1.24 1.62s-.12 1.3.24 1.87c.32.5.74.76 1.27.78s1.15-.11 1.87-.39c.39-.15.72-.24.99-.24s.48.1.62.31c.15.24.18.49.08.75-.1.27-.3.49-.59.68-.32.21-.77.36-1.34.45-.25.05-.45.12-.59.21-.16.1-.24.25-.27.45a.9.9 0 0 0 .14.57c.17.27.44.37.81.32.66-.07 1.34-.34 2.04-.8.67-.45 1.11-.99 1.31-1.63s.1-1.26-.29-1.88c-.35-.55-.79-.85-1.31-.9s-1.16.07-1.9.36c-.43.17-.77.26-1.02.29a.56.56 0 0 1-.57-.27q-.21-.315-.06-.72t.54-.66c.3-.19.64-.33 1.02-.4.27-.04.48-.11.62-.2.16-.1.25-.25.27-.44.02-.2 0-.36-.09-.49-.18-.27-.41-.39-.71-.35Zm-11.09 8.81c.18.21.46.53.83.96s.64.75.83.97c.29.34.61.71.96 1.12q.51.615.81.96c.2.24.3.36.31.38.06.08.14.17.25.27.21.21.41.3.6.26s.45-.2.79-.49l2.29-1.99c.34-.31.35-.64.05-.99-.29-.34-.59-.37-.89-.11-.05.04-.13.11-.23.21q-.165.15-.27.24-.585.54-1.59 1.41l-.74-.85c-.19-.22-.32-.38-.4-.48l1.62-1.41c.33-.29.36-.59.09-.93-.17-.21-.34-.31-.49-.29s-.34.12-.56.31c-.35.32-.76.68-1.23 1.09l-.27.23-.05-.06-.64-.78-.5-.58.29-.25c1.12-.97 1.73-1.52 1.84-1.63.15-.24.1-.5-.16-.77-.13-.13-.27-.21-.42-.22-.16-.01-.32.05-.48.19-.04.03-.27.24-.7.62q-.645.57-1.41 1.23l-.34.29c-.18.16-.3.33-.34.52s0 .37.15.54Zm-4.28 4.08c-.42.21-.83.58-1.23 1.09a3.35 3.35 0 0 0-.73 1.65c-.1.63-.02 1.28.24 1.96s.69 1.26 1.3 1.75c.87.7 1.79.99 2.76.85s1.75-.58 2.35-1.32q.585-.72.81-1.56.21-.84-.12-1.11a.92.92 0 0 0-.54-.22c-.2-.02-.36.05-.48.2-.08.09-.15.27-.2.56-.1.45-.27.83-.52 1.14q-.525.66-1.44.75c-.61.07-1.18-.11-1.7-.53q-.87-.705-1.05-1.62c-.12-.61 0-1.14.34-1.58.23-.29.52-.54.88-.74.21-.11.37-.23.46-.34.13-.16.17-.33.13-.5a.84.84 0 0 0-.31-.46c-.24-.2-.56-.19-.95.03m-5.87 11.96c.25.03.76.11 1.55.22s1.22.17 1.32.19c-.24.49-.52 1.06-.85 1.71-1.17-1.24-1.85-1.94-2.02-2.11Zm2.91 5.33c.22.11.43.12.61.02.19-.1.33-.26.45-.48.13-.26.08-.54-.16-.83l-.91-1 .47-.92c.46-.9.73-1.41.8-1.53l1.4.14q.51.045.75-.42c.11-.21.14-.42.1-.63s-.14-.35-.28-.42c-.11-.06-.27-.09-.48-.11-.36-.02-1.09-.08-2.17-.18h-.21c-.1 0-.17-.01-.21 0-2.38-.22-3.65-.34-3.8-.35-.4-.04-.7.15-.92.58-.08.16-.12.34-.11.52 0 .18.07.34.19.48l2.29 2.67c.4.44.95 1.11 1.66 2.01.2.24.38.4.54.49Z" fill="#ffffff"/>
        <path stroke="#009ada" stroke-dasharray=".54 .54" stroke-miterlimit="22.93" stroke-width=".54" fill="none" d="M80.058 4.28c36.68 5.168 62.225 39.093 57.057 75.772s-39.092 62.225-75.772 57.056C24.663 131.94-.88 98.016 4.287 61.337S43.379-.888 80.058 4.28z"/>
        <path d="M59.98 66.54c.21.98 2.06 1.85 3.1 2.13 1.31.35 3.31.3 4.76.19 2.91-.22 7.3-1.19 6.31 3.18-.43 1.88-2.27 5.35-3.38 6.95-2.74 3.98-5.8 7.94-8.8 11.82-.85 1.1-1.45 1.93-2.27 2.93-.99 1.2-1.47 2.15-.24 3.41.46.47 1.16.86 1.98.5.58-.26 3.45-3.33 3.9-3.79l8.95-9.04c.41-.33 1.37-.77 1.7-.06.44.93-.64 2.86-1.14 3.91l-6.4 14.13c-.59 1.26-.14 3 1.27 3.29 2.01.41 2.33-1.06 2.96-2.18l7.43-13.19c.29-.54 1.69-3.38 2.36-2.25.46.77.08 3.59-.04 4.59-.17 1.45-.32 3.05-.55 4.54-.23 1.55-.29 3.2-.53 4.66-.12.73-.49 4.15-.27 4.77.26.75.94.9 1.61 1 2.11.33 2.32-2.94 2.65-4.91.51-3.01.99-5.9 1.49-8.8.2-1.18 1.13-9.03 3.16-5.56.74 1.27.78 4.92 1.01 6.77l.52 4.65c.05.54.17 1.74.31 2.25.45 1.62 2.63 1.56 3.07.36.24-.65.4-3.86.42-4.75.12-4.35-.41-11.37.52-14.71.4-1.44 1.31-2.99 1.92-4.52l1.08-2.75c1.09-3.45 3.16-8.75.45-12.42-.41-.56-.86-.63-1.58-.97-1.53-.74-3.33-2.06-4.54-3.14-.76-.68-1.95-2.08-2.64-2.48-1.09-.63-3.03-.7-4.62-.56-1.68.15-2.71.51-4.04 1.07-1.23.52-2.52.94-3.68 1.52-1.1.56-2.33 1.04-3.47 1.64-3.32 1.72-3.4 1.88-7.16 3.15-.7.24-1.26.4-1.97.59-.68.18-1.19.5-2 .59-1.2.13-3.97-.13-3.62 1.5" fill-rule="evenodd" fill="#ffffff"/>
        <path d="M55.29 56.22c-1.23.06-2.29-2.76-2.99-4.04-1.36-2.46-4.96-9.96-6.04-11.62-.82-1.26-1.59-.93-2.41-.57-.43.18-.74.32-.89.87-.16.58-.03 1.1.09 1.56.18.73.66 1.83 1.01 2.51.59 1.14 3.91 8.73 4.38 9.86.52 1.25 1.58 3.38 1.55 4.65 0 .38-.04.54-.28.73-1.24.73-2.82-1.43-3.26-1.96-1-1.21-6.7-8.28-7.44-8.7a1.63 1.63 0 0 0-2.25 2.19l.94 1.69c1.67 2.92 3.46 5.4 5.34 8.16 1.43 2.11 2.92 4.29 3.71 6.99.18.61.84 5.29 1.27 6.83 1.14 4 2 8.25 5.73 10.4 1.43.83 2.24.27 4.74.2 3.17-.08 2.17.84 3.86-1.49.43-.59.76-.96 1.24-1.63 1.54-2.19 3.35-4.35 4.78-6.65.36-.57 1.82-3.19 1.91-3.91-2.7-.01-5.34.66-8.27-.21-2.01-.6-4.37-1.88-5.18-3.85-.99-2.39-.14-5.01 2.33-6.04 1.41-.59 2.43-.39 3.97-.61.33-.05.47-.18.8-.3l5.9-1.99.03-2.24c0-3.21.36-6.53.43-9.51.03-1.43.17-3.17.32-4.6l.34-4.67c0-2.27-3.5-3.23-4.01-.46-.14.76-.26 1.49-.4 2.28l-.43 2.12c-.16.72-.3 1.52-.45 2.16l-.84 4.37c-.1.61-.27 1.53-.44 2.11-.19.66-.26 1.56-.4 2.24-.16.76-.14 1.44-.5 2.06-.47.82-1.03.78-1.55.14-.48-.6-.49-1.17-.61-1.94-.11-.73-.28-1.52-.35-2.29-.07-.84-.2-1.52-.36-2.27-.16-.76-.23-1.58-.34-2.34-.11-.75-.27-1.37-.37-2.17l-1.13-6.68c-.17-.69-.17-1.53-.5-2.08-.7-1.15-2.26-1.74-3.44-.51-.63.65-.6 1.02-.5 2 .34 3.2.53 6.34.81 9.56l.5 8.65c-.02.6-.08.65-.35 1.03" fill-rule="evenodd" fill="#ffffff"/>
        <path d="M102.11 64.56c.6 1.6.74 2.73.67 4.54-.03.95-.23 2.11-.5 2.94-.42 1.32 1.04 1.54 1.37.36.53-1.87.74-4.34.35-6.39-.14-.71-.88-3.41-1.71-3.48-.49-.04-.9.41-.75.9.05.17.46.84.57 1.14" fill="#fafcfd" fill-rule="evenodd"/>
        <path d="M106.01 65.49c.59 2.36.4 5.1-.58 7.3-.23.52-.16 1.11.47 1.15.58.04.75-.41.92-.79.72-1.58.99-3.96.91-6.04-.03-.67-.52-3.65-1.37-3.81-.5-.09-.88.35-.79.85.04.23.34.92.44 1.34" fill="#fafcfd" fill-rule="evenodd"/>
        <path d="M45.33 89.53c.55.65 2.41 2.46 3.19 2.65.64.16 1.14-.35.83-.98-.1-.19-.94-.7-1.15-.86-2.01-1.57-3.17-3.39-3.97-5.79-.16-.48-.12-1.11-.69-1.24-.69-.15-.98.41-.83 1.05.39 1.6 1.64 3.99 2.63 5.17" fill="#fafcfd" fill-rule="evenodd"/>
        <path d="M45.7 83.17c.35 1.4 2.18 3.97 3.05 4.86.56.56 2.68 2.27 3.52 2.39.62.09 1.03-.47.73-1.04-.22-.41-3.73-1.39-5.75-6.09-.21-.48-.3-1.12-.77-1.23-.72-.17-.92.5-.77 1.1" fill="#fafcfd" fill-rule="evenodd"/>
        <path d="M107.25 102.81c-.89.26-1.78.8-2.68 1.62-.9.83-1.42 1.8-1.55 2.94-.13 1.13.17 2.1.9 2.9q.96 1.05 2.25.9c.86-.09 1.83-.47 2.9-1.12 1.01-.61 1.69-.71 2.05-.32.23.25.31.55.24.89-.07.35-.26.66-.57.94-.16.14-.33.27-.52.39s-.33.2-.43.25-.25.12-.47.19c-.22.08-.33.13-.34.13-.45.18-.79.37-1.01.57-.25.23-.36.53-.34.91s.17.72.44 1.01c.4.44.91.56 1.52.36 1.02-.32 2.02-.94 3.01-1.85.93-.88 1.47-1.86 1.62-2.92.15-1.07-.18-2.05-.99-2.93-.71-.78-1.49-1.15-2.32-1.09-.83.05-1.79.41-2.86 1.06-.54.32-.98.53-1.33.63-.34.1-.61.04-.81-.17s-.26-.5-.19-.84c.07-.35.25-.65.54-.92.35-.32.76-.58 1.23-.77.51-.2.87-.39 1.06-.57.25-.23.36-.53.35-.9-.02-.37-.13-.67-.33-.89q-.615-.675-1.38-.42m-14.11 13.29c.23.28.7.82 1.4 1.61s1.08 1.23 1.13 1.29c-.71.33-1.44.65-2.18.97-.02-.29-.08-.9-.15-1.82-.08-.92-.14-1.61-.19-2.05Zm-2.28 8.74c.18.43.48.68.88.75s.82.02 1.23-.16c.52-.22.78-.64.77-1.26l-.09-1.82 1.43-.61c1.26-.54 2.01-.85 2.24-.94q.255.315 1.32 1.35c.4.41.91.48 1.52.22.43-.18.73-.45.92-.8s.22-.67.1-.94q-.165-.39-.54-.72c-.35-.31-1.1-1.04-2.25-2.21-.23-.21-.41-.36-.54-.47q-2.835-2.865-4.11-4.05c-.51-.53-1.18-.62-2.03-.25-.3.13-.56.33-.77.61-.22.28-.32.58-.31.9l.07 5.32c.03 1.17.03 2.44-.02 3.81 0 .55.05.97.18 1.27m-14.42-5.34c.6-.07 1.06.01 1.37.25.31.23.49.6.54 1.1q.06.735-.45 1.17c-.34.29-.78.47-1.33.53l-1.06.12-.36-3c.1-.01.31-.04.63-.08s.53-.07.65-.08Zm-4.25-.42c.02.16.05.42.11.77.05.35.09.61.11.79.31 2.66.59 5.12.84 7.37.06.54.23.9.52 1.08.28.17.73.21 1.32.12.78-.15 1.12-.64 1.03-1.47-.03-.23-.08-.67-.17-1.31-.08-.64-.14-1.1-.17-1.38.12-.01.33-.03.65-.07.32-.03.54-.05.65-.07.36.38.86.96 1.51 1.73.65.78 1 1.19 1.06 1.26.17.18.3.31.39.38.08.07.21.14.38.2s.35.08.53.06q.645-.09 1.05-.51c.27-.28.39-.6.35-.96-.04-.31-.18-.59-.43-.85-1.18-1.21-1.94-2-2.27-2.36.55-.34.96-.83 1.25-1.45s.39-1.28.31-1.98c-.14-1.24-.67-2.15-1.59-2.75s-2.04-.82-3.35-.67c-.23.03-.5.06-.81.1s-.51.07-.61.08q-.495.075-1.11.18c-.49.08-.89.27-1.18.56-.29.3-.42.68-.36 1.14Zm-10.14.77c-.1.4-.3.67-.6.83-.3.15-.65.18-1.04.09-.11-.03-.37-.08-.76-.17s-.63-.14-.72-.17l.57-2.36.45.11.67.16.44.11c.37.11.64.3.83.55a1 1 0 0 1 .16.86Zm-2.02 3.15c1.05.25 1.49.76 1.3 1.53-.09.39-.3.64-.62.76s-.71.13-1.15.04l-1.7-.41.53-2.28zm1.6-6.92c-1.75-.42-2.91-.66-3.46-.71-.29-.02-.56.06-.81.26-.24.2-.41.48-.5.84-.13.53-.31 1.33-.54 2.38-.23 1.06-.41 1.85-.54 2.38l-.57 2.2-.45 1.81c-.07.43-.01.78.16 1.07.18.29.44.47.79.56l1.46.37c1.39.33 2.4.54 3.01.62 1.01.14 1.87-.02 2.57-.47.71-.45 1.19-1.21 1.45-2.28.15-.62.08-1.2-.2-1.73-.29-.53-.7-.93-1.25-1.19.47-.05.89-.25 1.26-.59.38-.34.63-.78.76-1.31.22-.92.04-1.78-.53-2.59-.58-.81-1.45-1.35-2.61-1.64Zm-16.47-1.63-2.08 4.09c-.08.17-.21.42-.39.76s-.29.56-.33.65c-.2.38-.23.74-.08 1.07s.42.6.81.79c.37.19.74.25 1.09.2q.525-.075.78-.63l1.28-2.62.31-.62c.11-.22.26-.52.46-.91s.35-.68.44-.86c.51-1.05 1.1-2.25 1.78-3.62.17-.33.17-.65.03-.95-.15-.3-.41-.54-.77-.72-.39-.19-.76-.26-1.11-.2s-.63.3-.83.72c-.32.66-.78 1.61-1.4 2.85Zm-10.69-11.67c-.35.44-.84 1.05-1.47 1.85s-1.1 1.39-1.42 1.78c-.3.38-.76.92-1.35 1.61-.6.69-1.01 1.18-1.25 1.47-.12.15-.25.33-.38.53-.31.51-.39.94-.26 1.29s.55.77 1.24 1.28c.4.29.95.72 1.67 1.29l1.49 1.21c.65.52 1.28.41 1.88-.33.24-.3.36-.59.35-.88 0-.29-.18-.56-.51-.81l-1.73-1.3c-.18-.13-.55-.41-1.1-.86l1.14-1.43 1.84-2.3q2.145-2.595 2.16-2.61c.48-.62.37-1.22-.34-1.79-.34-.27-.68-.41-1.05-.42-.36-.01-.67.13-.92.42Z" fill="#ffffff"/>
    </g>
</svg>
