<?xml version="1.0" encoding="UTF-8"?>
<svg data-bbox="0.263 0.56 86.626 25.852" xmlns="http://www.w3.org/2000/svg" viewBox="0 0 87 27" height="27" width="87" data-type="ugc">
    <g>
        <g clip-path="url(#cb580d21-7966-4381-b316-1916ff4fc3a8)">
            <path fill="#000000" d="M45.992.56q-.741.001-1.258.59l-6.17 8.237-6.172-8.237q-.519-.589-1.258-.59-.666 0-1.148.48t-.482 1.14v16.804h3.283V6.724l5.775 7.869 5.776-7.869v12.26h3.282V2.18q0-.66-.48-1.14a1.57 1.57 0 0 0-1.148-.48"/>
            <path fill="#000000" d="M60.468.855a1.5 1.5 0 0 0-.877-.27 1.63 1.63 0 0 0-1.53 1.006l-7.48 17.393h3.678l5.294-12.276 5.27 12.276h3.652L61.047 1.591a1.7 1.7 0 0 0-.58-.736"/>
            <path fill="#000000" d="M83.088 18.984h3.801l-4.476-6.305q.666-.186 1.28-.514a5.8 5.8 0 0 0 2.245-2.11q.828-1.35.827-3.018a6.1 6.1 0 0 0-.827-3.104 6.1 6.1 0 0 0-2.257-2.269A6.1 6.1 0 0 0 80.57.83h-7.428q-.693 0-1.198.502a1.62 1.62 0 0 0-.506 1.19v16.46h3.283v-6.059h4.134l4.232 6.06zM74.72 4.094h5.85q.788 0 1.456.404.667.405 1.062 1.079.394.675.394 1.459 0 .785-.394 1.434a2.94 2.94 0 0 1-1.049 1.03q-.654.382-1.468.381h-5.85z"/>
            <path fill="#000000" d="M2.329 22.093a1.1 1.1 0 0 0-.576-.158H.44a.17.17 0 0 0-.126.053.17.17 0 0 0-.051.124v3.252h.294v-1.158h1.197q.314 0 .576-.146.264-.146.417-.398.153-.25.153-.563 0-.31-.153-.579a1.15 1.15 0 0 0-.417-.426zm.158 1.415a.8.8 0 0 1-.305.297.9.9 0 0 1-.429.108H.556v-1.685h1.197q.224 0 .42.117a.88.88 0 0 1 .425.753.8.8 0 0 1-.11.41z"/>
            <path fill="#000000" d="M7.177 23.922a1.01 1.01 0 0 0 .53-.893 1.1 1.1 0 0 0-.533-.945 1.04 1.04 0 0 0-.538-.149H5.219a.17.17 0 0 0-.125.052.17.17 0 0 0-.052.125v3.252h.294v-1.306h1.131l.91 1.306h.349L6.8 24.046q.2-.028.376-.122zm-1.84-1.696h1.299q.21 0 .387.112a.8.8 0 0 1 .283.294q.105.183.105.395a.74.74 0 0 1-.38.645.8.8 0 0 1-.394.1h-1.3v-1.547z"/>
            <path fill="#000000" d="M12.445 22.101a1.74 1.74 0 0 0-.878-.232 1.75 1.75 0 0 0-1.526.869 1.7 1.7 0 0 0-.235.887q0 .486.235.892a1.76 1.76 0 0 0 2.412.654q.4-.237.636-.648a1.77 1.77 0 0 0 .235-.896q0-.486-.238-.89a1.74 1.74 0 0 0-.64-.634zm.383 2.28q-.198.343-.529.543-.33.202-.732.202t-.736-.202a1.5 1.5 0 0 1-.726-1.3q0-.408.195-.74a1.46 1.46 0 0 1 1.268-.727q.406 0 .74.197a1.45 1.45 0 0 1 .72 1.271q0 .41-.198.756z"/>
            <path fill="#000000" d="M17.64 22.165a1.73 1.73 0 0 0-.877-.23h-1.077q-.074 0-.124.052a.17.17 0 0 0-.048.12v3.085q0 .07.051.12a.17.17 0 0 0 .126.052h1.072a1.75 1.75 0 0 0 1.512-.847q.236-.394.236-.865t-.235-.861a1.73 1.73 0 0 0-.636-.623zm.377 2.204q-.191.328-.522.514-.33.188-.732.189h-.955v-2.844h.955a1.45 1.45 0 0 1 1.254.705q.19.326.19.716 0 .392-.19.72"/>
            <path fill="#000000" d="M23.54 23.931q0 .306-.154.57a1.15 1.15 0 0 1-1.003.57c-.211 0-.4-.05-.578-.152a1.13 1.13 0 0 1-.421-.418 1.1 1.1 0 0 1-.157-.57v-1.996h-.294v1.996q0 .394.195.723a1.45 1.45 0 0 0 1.258.714q.395 0 .728-.192a1.44 1.44 0 0 0 .721-1.245v-1.996h-.299v1.996z"/>
            <path fill="#000000" d="M28.443 24.967a1.6 1.6 0 0 1-.7.156q-.4 0-.733-.201a1.5 1.5 0 0 1-.725-1.295 1.44 1.44 0 0 1 .725-1.268q.333-.195.733-.195.33 0 .629.146.298.147.493.395l.224-.19a1.77 1.77 0 0 0-1.347-.639 1.76 1.76 0 0 0-1.526.865 1.7 1.7 0 0 0-.235.887q0 .487.235.897a1.76 1.76 0 0 0 1.428.889v.007q0 .11.044.181.045.07.138.106l.328.134-.565.305v.265l.615-.33a.3.3 0 0 0 .098-.09.23.23 0 0 0 .037-.131.3.3 0 0 0-.035-.14.2.2 0 0 0-.097-.084l-.359-.133v-.092q.39-.019.72-.182.375-.186.612-.527l-.233-.181a1.25 1.25 0 0 1-.509.447z"/>
            <path fill="#000000" d="m32.457 21.079.157.25a.34.34 0 0 0 .097.113q.047.03.117.029a.22.22 0 0 0 .126-.028.5.5 0 0 0 .108-.116l.247-.375h-.256l-.244.362-.176-.274a.2.2 0 0 0-.08-.079.28.28 0 0 0-.226 0 .2.2 0 0 0-.086.08l-.288.426h.251l.253-.39z"/>
            <path fill="#000000" d="M33.5 22.101a1.74 1.74 0 0 0-.877-.232 1.75 1.75 0 0 0-1.526.869 1.7 1.7 0 0 0-.236.887q0 .486.236.892.234.41.643.652.408.24.883.24c.316 0 .618-.079.885-.238q.402-.237.636-.648.235-.409.235-.896 0-.486-.238-.89a1.74 1.74 0 0 0-.64-.634zm.384 2.28q-.199.343-.53.543-.33.202-.731.202-.402 0-.737-.202a1.5 1.5 0 0 1-.726-1.3q0-.408.195-.74a1.46 1.46 0 0 1 1.269-.727q.405 0 .74.197a1.45 1.45 0 0 1 .72 1.271q0 .41-.199.756z"/>
            <path fill="#000000" d="M36.528 21.985a.17.17 0 0 0-.052.125v3.076q0 .075.052.125a.17.17 0 0 0 .125.052h2.443v-.293H36.77v-1.274h2.185v-.297H36.77v-1.274h2.326v-.293h-2.443a.17.17 0 0 0-.125.052z"/>
            <path fill="#000000" d="M43.47 23.586a6 6 0 0 0-.772-.146 9 9 0 0 1-.635-.1.9.9 0 0 1-.359-.166q-.153-.123-.145-.354a.52.52 0 0 1 .162-.366.9.9 0 0 1 .42-.218q.271-.07.64-.06.629.018 1.17.27l.116-.265q-.285-.135-.615-.21a3.3 3.3 0 0 0-.667-.086 2.5 2.5 0 0 0-.785.097q-.343.105-.538.322a.78.78 0 0 0-.206.507q-.01.348.187.532a1 1 0 0 0 .468.25q.273.065.762.13.397.054.643.123.246.066.408.21a.48.48 0 0 1 .15.398.52.52 0 0 1-.166.353q-.157.153-.453.232a2.3 2.3 0 0 1-.68.065 2.76 2.76 0 0 1-1.29-.334l-.135.27q.331.175.68.264.35.087.745.101.462.01.825-.104.364-.114.57-.331a.74.74 0 0 0 .21-.51q.013-.37-.194-.579a1.14 1.14 0 0 0-.518-.294z"/>
            <path fill="#000000" d="M52.043 24.557q-.192.27-.493.416a1.6 1.6 0 0 1-.692.153q-.401 0-.736-.202a1.5 1.5 0 0 1-.726-1.3 1.44 1.44 0 0 1 .726-1.267q.335-.194.736-.194a1.44 1.44 0 0 1 1.12.538l.214-.194a1.74 1.74 0 0 0-1.334-.63 1.76 1.76 0 0 0-1.526.865 1.7 1.7 0 0 0-.235.888q0 .487.235.896.235.411.644.651.408.24.882.241c.317 0 .584-.064.839-.192q.382-.193.615-.544a.16.16 0 0 0 .023-.08v-.791h-.294v.75z"/>
            <path fill="#000000" d="M56.8 23.922a1.01 1.01 0 0 0 .532-.893 1.1 1.1 0 0 0-.534-.945 1.04 1.04 0 0 0-.538-.149h-1.417a.17.17 0 0 0-.126.052.17.17 0 0 0-.051.125v3.252h.294v-1.306h1.131l.91 1.306h.348l-.925-1.318q.2-.028.375-.122zm-1.84-1.696h1.3q.21 0 .387.112a.84.84 0 0 1 .282.294q.105.183.105.395a.74.74 0 0 1-.38.645.8.8 0 0 1-.393.1h-1.3v-1.547z"/>
            <path fill="#000000" d="M61.265 20.823h-.247l-.312.746h.247z"/>
            <path fill="#000000" d="M60.904 21.9a.17.17 0 0 0-.192 0 .2.2 0 0 0-.068.085l-1.45 3.378h.332l1.28-2.968 1.263 2.968h.331l-1.43-3.378a.2.2 0 0 0-.069-.085z"/>
            <path fill="#000000" d="M64.598 21.988a.17.17 0 0 0-.052.124v3.252h.294v-1.565h2.092v-.297H64.84v-1.274h2.233v-.293h-2.35a.17.17 0 0 0-.125.053"/>
            <path fill="#000000" d="M69.17 22.226h1.094v2.844H69.17v.293h2.483v-.293h-1.095v-2.844h1.095v-.29H69.17z"/>
            <path fill="#000000" d="M76.178 24.967a1.6 1.6 0 0 1-.7.156q-.4 0-.733-.201a1.5 1.5 0 0 1-.529-.544 1.5 1.5 0 0 1-.195-.751q0-.408.195-.74a1.44 1.44 0 0 1 1.263-.723q.33 0 .63.146.297.147.493.395l.224-.19a1.77 1.77 0 0 0-1.347-.639 1.76 1.76 0 0 0-1.526.865 1.7 1.7 0 0 0-.235.887q0 .487.235.897t.643.65.883.242a1.8 1.8 0 0 0 .826-.185q.375-.186.612-.528l-.233-.18a1.25 1.25 0 0 1-.509.446z"/>
            <path fill="#000000" d="M80.491 21.9a.17.17 0 0 0-.192 0 .2.2 0 0 0-.068.085l-1.45 3.378h.332l1.28-2.968 1.263 2.968h.332l-1.432-3.378a.2.2 0 0 0-.068-.085z"/>
            <path fill="#000000" d="M86.694 23.881a1.14 1.14 0 0 0-.517-.294 6 6 0 0 0-.772-.145 9 9 0 0 1-.635-.1.9.9 0 0 1-.359-.166q-.153-.123-.145-.355a.52.52 0 0 1 .161-.366.9.9 0 0 1 .422-.217q.27-.07.638-.06.63.017 1.17.269l.117-.265q-.285-.135-.615-.21a3.3 3.3 0 0 0-.667-.085 2.5 2.5 0 0 0-.785.097q-.343.105-.538.321a.78.78 0 0 0-.206.508q-.009.347.186.532.196.185.469.25.273.064.761.129.398.056.644.123.246.068.408.21a.47.47 0 0 1 .15.399.5.5 0 0 1-.168.352q-.158.153-.452.233a2.3 2.3 0 0 1-.68.064 2.74 2.74 0 0 1-1.29-.334l-.136.27q.331.175.68.264.35.088.745.102a2.6 2.6 0 0 0 .826-.105 1.3 1.3 0 0 0 .569-.33.74.74 0 0 0 .21-.51q.014-.37-.194-.58z"/>
            <path fill="url(#11076440-4b96-4c85-9f3b-1561ef92cefc)" d="m9.32.58.02 8.618c.006 2.322 1.905 4.2 4.24 4.194 2.337-.006 4.227-1.893 4.22-4.215L17.78.561z"/>
            <path fill="url(#955bb254-cef0-4d56-9c9f-a669a291ba0a)" d="M26.543 6.764c-.01-3.435-2.816-6.21-6.271-6.203l-2.205.004.034 14.223c.006 2.322 1.905 4.2 4.24 4.195 2.337-.006 4.227-1.893 4.22-4.215l-.018-8.005z"/>
            <path fill="url(#ffd45a4d-6f77-41e7-97b2-1cf89f459dc7)" d="M4.699.56c-1.199 0-2.283.48-3.067 1.26A4.3 4.3 0 0 0 .361 4.858v.006c0 1.19.482 2.268 1.265 3.048a4.33 4.33 0 0 0 3.05 1.264h.014c1.198 0 2.282-.48 3.067-1.258A4.28 4.28 0 0 0 9.028 4.88L9.033.564z"/>
        </g>
        <defs fill="none">
            <linearGradient gradientUnits="userSpaceOnUse" y2="16.67" x2="26.474" y1="-1.159" x1="4.993" id="11076440-4b96-4c85-9f3b-1561ef92cefc">
                <stop stop-color="#B73A8C"/>
                <stop stop-color="#7051A0" offset=".33"/>
                <stop stop-color="#2E68B4" offset=".62"/>
                <stop stop-color="#0F8DD3" offset="1"/>
            </linearGradient>
            <linearGradient gradientUnits="userSpaceOnUse" y2="15.037" x2="27.83" y1="-2.792" x1="6.349" id="955bb254-cef0-4d56-9c9f-a669a291ba0a">
                <stop stop-color="#B73A8C"/>
                <stop stop-color="#7051A0" offset=".33"/>
                <stop stop-color="#2E68B4" offset=".62"/>
                <stop stop-color="#0F8DD3" offset="1"/>
            </linearGradient>
            <linearGradient gradientUnits="userSpaceOnUse" y2="19.725" x2="23.939" y1="1.897" x1="2.457" id="ffd45a4d-6f77-41e7-97b2-1cf89f459dc7">
                <stop stop-color="#B73A8C"/>
                <stop stop-color="#7051A0" offset=".33"/>
                <stop stop-color="#2E68B4" offset=".62"/>
                <stop stop-color="#0F8DD3" offset="1"/>
            </linearGradient>
            <clipPath id="cb580d21-7966-4381-b316-1916ff4fc3a8">
                <path fill="#ffffff" d="M86.888.56v25.848H.262V.56z"/>
            </clipPath>
        </defs>
    </g>
</svg>
